<svg width="400" height="65" viewBox="0 0 400 65" fill="none" xmlns="http://www.w3.org/2000/svg">
<g clip-path="url(#clip0_7607_117432)">
<path d="M67.318 32.6189L47.8452 15.3671C43.7603 11.7581 38.5253 9.65615 32.6954 9.65615C20.1233 9.65615 9.85156 19.9279 9.85156 32.5C9.85156 45.072 20.1233 55.3438 32.6954 55.3438C38.5253 55.3438 43.7603 53.1228 47.8452 49.6328L67.318 32.6189ZM16.7126 32.6189C16.7126 23.8939 23.8117 16.6362 32.6954 16.6362C41.4204 16.6362 48.6781 23.7352 48.6781 32.6189C48.6781 41.344 41.5791 48.6017 32.6954 48.6017C23.9703 48.4827 16.7126 41.344 16.7126 32.6189Z" fill="#E5173F"/>
<path d="M75.4878 38.5679C75.4878 33.8881 79.3744 30.636 90.7567 29.0496V27.9392C90.7567 25.1234 89.2099 23.7353 86.3941 23.7353C82.9834 23.7353 80.4849 25.282 78.145 27.146L75.9637 25.1234C78.7795 22.4662 82.3489 20.6022 86.87 20.6022C92.343 20.6022 94.5243 23.418 94.5243 28.2564V38.3696C94.5243 41.1854 94.6829 42.7321 95.1588 43.9616H91.2722C90.955 43.0097 90.7963 42.0976 90.7963 40.8285C88.2978 43.1684 85.3233 44.2392 82.0713 44.2392C77.9863 44.3582 75.4878 42.3355 75.4878 38.5679ZM90.7567 38.092V31.7068C82.0316 33.0949 79.2158 35.1175 79.2158 38.092C79.2158 40.2732 80.6039 41.5027 83.1024 41.5027C85.9579 41.3837 88.5754 40.1543 90.7567 38.092Z" fill="#58595B"/>
<path d="M99.3628 32.6586C99.3628 24.4095 104.677 20.8005 109.793 20.8005C114.949 20.8005 117.289 23.7749 118.677 27.1856L115.544 28.4151C114.433 25.4406 112.569 23.8939 109.635 23.8939C106.343 23.8939 103.091 26.2338 103.091 32.619C103.091 38.211 105.748 41.344 109.635 41.344C112.609 41.344 114.314 40.1146 115.702 36.8229L118.836 38.0523C117.13 41.7803 114.473 44.5961 109.476 44.5961C104.32 44.5168 99.3628 40.4319 99.3628 32.6586Z" fill="#58595B"/>
<path d="M122.088 32.6586C122.088 24.4095 127.402 20.8005 132.518 20.8005C137.634 20.8005 140.014 23.7749 141.402 27.1856L138.269 28.4151C137.158 25.4406 135.294 23.8939 132.359 23.8939C129.068 23.8939 125.816 26.2338 125.816 32.619C125.816 38.211 128.473 41.344 132.359 41.344C135.334 41.344 137.039 40.1146 138.427 36.8229L141.56 38.0523C139.855 41.7803 137.198 44.5961 132.201 44.5961C127.085 44.5168 122.088 40.4319 122.088 32.6586Z" fill="#58595B"/>
<path d="M144.852 32.6586C144.852 24.4095 150.325 20.8005 155.124 20.8005C160.597 20.8005 164.642 24.5285 164.642 32.8173V33.6105H148.58C148.739 38.7662 151.713 41.5423 155.441 41.5423C158.733 41.5423 160.597 40.1543 162.302 37.8144L164.483 39.6784C162.302 42.6528 159.486 44.5168 155.124 44.5168C149.849 44.5168 144.852 40.5905 144.852 32.6586ZM161.231 30.636C160.914 26.5908 159.05 23.7749 155.322 23.7749C152.189 23.7749 149.413 25.9562 148.778 30.636H161.231Z" fill="#58595B"/>
<path d="M167.934 40.5905L170.115 38.4092C171.82 40.2732 174.16 41.5423 177.293 41.5423C180.863 41.5423 182.766 40.3129 182.766 37.973C182.766 35.6331 180.744 34.8399 176.857 33.9277C172.019 32.8173 168.767 31.4292 168.767 27.0667C168.767 23.656 171.741 20.8401 176.699 20.8401C180.744 20.8401 183.242 22.0696 185.424 24.1319L183.56 26.6304C181.854 25.0837 179.514 23.9732 177.016 23.9732C173.724 23.9732 172.336 25.3613 172.336 27.1063C172.336 29.2876 174.2 30.0808 177.809 30.8343C182.965 32.0637 186.534 33.3328 186.534 38.0127C186.534 42.3752 182.647 44.7151 177.492 44.7151C173.248 44.3582 169.798 42.7718 167.934 40.5905Z" fill="#58595B"/>
<path d="M189.588 40.5905L191.769 38.4092C193.475 40.2732 195.814 41.5423 198.947 41.5423C202.517 41.5423 204.42 40.3129 204.42 37.973C204.42 35.6331 202.398 34.8399 198.511 33.9277C193.673 32.8173 190.421 31.4292 190.421 27.0667C190.421 23.656 193.395 20.8401 198.353 20.8401C202.398 20.8401 204.896 22.0696 207.078 24.1319L205.214 26.6304C203.508 25.0837 201.168 23.9732 198.67 23.9732C195.378 23.9732 193.99 25.3613 193.99 27.1063C193.99 29.2876 195.854 30.0808 199.463 30.8343C204.619 32.0637 208.188 33.3328 208.188 38.0127C208.188 42.3752 204.302 44.7151 199.146 44.7151C194.902 44.3582 191.452 42.7718 189.588 40.5905Z" fill="#58595B"/>
</g>
<path d="M246.395 35.6895H248.917C248.712 37.6992 248.158 39.4355 247.256 40.8984C246.354 42.3477 245.123 43.4619 243.564 44.2412C242.006 45.0205 240.126 45.4102 237.925 45.4102C236.229 45.4102 234.691 45.0889 233.311 44.4463C231.943 43.8037 230.768 42.8945 229.783 41.7188C228.799 40.5293 228.04 39.1074 227.507 37.4531C226.974 35.7988 226.707 33.96 226.707 31.9365V28.2041C226.707 26.1807 226.974 24.3486 227.507 22.708C228.04 21.0537 228.806 19.6318 229.804 18.4424C230.802 17.2529 231.998 16.3369 233.393 15.6943C234.787 15.0518 236.359 14.7305 238.109 14.7305C240.229 14.7305 242.061 15.1201 243.605 15.8994C245.15 16.665 246.367 17.7725 247.256 19.2217C248.158 20.6709 248.712 22.4209 248.917 24.4717H246.395C246.203 22.8584 245.779 21.4912 245.123 20.3701C244.467 19.249 243.558 18.3945 242.396 17.8066C241.247 17.2051 239.818 16.9043 238.109 16.9043C236.715 16.9043 235.471 17.1709 234.377 17.7041C233.283 18.2373 232.354 19.0029 231.588 20.001C230.822 20.9854 230.234 22.168 229.824 23.5488C229.428 24.9297 229.229 26.4678 229.229 28.1631V31.9365C229.229 33.5771 229.421 35.0879 229.804 36.4688C230.187 37.8496 230.747 39.0459 231.485 40.0576C232.237 41.0693 233.153 41.8555 234.233 42.416C235.313 42.9766 236.544 43.2568 237.925 43.2568C239.688 43.2568 241.158 42.9766 242.334 42.416C243.523 41.8418 244.446 40.9941 245.103 39.873C245.759 38.752 246.189 37.3574 246.395 35.6895ZM267.989 41.0215V29.5781C267.989 28.5254 267.771 27.6162 267.333 26.8506C266.896 26.085 266.253 25.4971 265.405 25.0869C264.558 24.6768 263.512 24.4717 262.268 24.4717C261.119 24.4717 260.094 24.6768 259.191 25.0869C258.303 25.4834 257.599 26.0234 257.079 26.707C256.573 27.377 256.32 28.1221 256.32 28.9424L253.859 28.9219C253.859 28.0879 254.064 27.2812 254.475 26.502C254.885 25.7227 255.466 25.0254 256.218 24.4102C256.97 23.7949 257.865 23.3096 258.904 22.9541C259.957 22.585 261.112 22.4004 262.37 22.4004C263.956 22.4004 265.351 22.667 266.554 23.2002C267.771 23.7334 268.721 24.5332 269.404 25.5996C270.088 26.666 270.43 28.0059 270.43 29.6191V40.3447C270.43 41.1104 270.484 41.9033 270.594 42.7236C270.717 43.5439 270.888 44.2207 271.106 44.7539V45H268.502C268.338 44.5078 268.208 43.8926 268.112 43.1543C268.03 42.4023 267.989 41.6914 267.989 41.0215ZM268.563 32.0801L268.604 33.9668H263.785C262.527 33.9668 261.399 34.083 260.401 34.3154C259.417 34.5342 258.583 34.8623 257.899 35.2998C257.216 35.7236 256.689 36.2363 256.32 36.8379C255.965 37.4395 255.787 38.123 255.787 38.8887C255.787 39.6816 255.985 40.4062 256.382 41.0625C256.792 41.7188 257.366 42.2451 258.104 42.6416C258.856 43.0244 259.745 43.2158 260.771 43.2158C262.138 43.2158 263.341 42.9629 264.38 42.457C265.433 41.9512 266.301 41.2881 266.984 40.4678C267.668 39.6475 268.126 38.752 268.358 37.7812L269.425 39.1963C269.247 39.8799 268.919 40.584 268.44 41.3086C267.976 42.0195 267.367 42.6895 266.615 43.3184C265.863 43.9336 264.975 44.4395 263.949 44.8359C262.938 45.2188 261.789 45.4102 260.504 45.4102C259.055 45.4102 257.79 45.1367 256.71 44.5898C255.644 44.043 254.81 43.2979 254.208 42.3545C253.62 41.3975 253.326 40.3174 253.326 39.1143C253.326 38.0205 253.559 37.043 254.023 36.1816C254.488 35.3066 255.158 34.5684 256.033 33.9668C256.922 33.3516 257.988 32.8867 259.232 32.5723C260.49 32.2441 261.898 32.0801 263.457 32.0801H268.563ZM279.74 13.5V45H277.3V13.5H279.74ZM295.019 45.4102C293.569 45.4102 292.236 45.1436 291.02 44.6104C289.816 44.0771 288.764 43.3252 287.861 42.3545C286.973 41.3838 286.282 40.2354 285.79 38.9092C285.312 37.5693 285.072 36.1064 285.072 34.5205V33.6387C285.072 31.9297 285.325 30.3848 285.831 29.0039C286.337 27.623 287.034 26.4404 287.923 25.4561C288.812 24.4717 289.823 23.7197 290.958 23.2002C292.106 22.667 293.31 22.4004 294.567 22.4004C295.976 22.4004 297.227 22.6533 298.32 23.1592C299.414 23.6514 300.33 24.3555 301.068 25.2715C301.82 26.1738 302.388 27.2471 302.771 28.4912C303.153 29.7217 303.345 31.082 303.345 32.5723V34.0693H286.549V31.9775H300.904V31.6904C300.877 30.4463 300.624 29.2842 300.146 28.2041C299.681 27.1104 298.983 26.2217 298.054 25.5381C297.124 24.8545 295.962 24.5127 294.567 24.5127C293.528 24.5127 292.571 24.7314 291.696 25.1689C290.835 25.6064 290.09 26.2354 289.461 27.0557C288.846 27.8623 288.367 28.8262 288.025 29.9473C287.697 31.0547 287.533 32.2852 287.533 33.6387V34.5205C287.533 35.751 287.711 36.8994 288.066 37.9658C288.436 39.0186 288.955 39.9482 289.625 40.7549C290.309 41.5615 291.115 42.1904 292.045 42.6416C292.975 43.0928 294 43.3184 295.121 43.3184C296.434 43.3184 297.596 43.0791 298.607 42.6006C299.619 42.1084 300.528 41.3359 301.335 40.2832L302.873 41.4727C302.395 42.1836 301.793 42.8398 301.068 43.4414C300.357 44.043 299.503 44.5215 298.505 44.877C297.507 45.2324 296.345 45.4102 295.019 45.4102ZM310.625 27.5479V45H308.185V22.8105H310.522L310.625 27.5479ZM310.071 32.5312L308.984 31.916C309.066 30.6035 309.333 29.373 309.784 28.2246C310.235 27.0762 310.844 26.0645 311.609 25.1895C312.389 24.3145 313.298 23.6309 314.337 23.1387C315.39 22.6465 316.552 22.4004 317.823 22.4004C318.931 22.4004 319.922 22.5508 320.797 22.8516C321.672 23.1523 322.417 23.6309 323.032 24.2871C323.647 24.9434 324.112 25.7842 324.427 26.8096C324.755 27.835 324.919 29.0859 324.919 30.5625V45H322.458V30.542C322.458 29.0107 322.246 27.8145 321.822 26.9531C321.398 26.0781 320.797 25.4561 320.018 25.0869C319.238 24.7178 318.315 24.5332 317.249 24.5332C316.073 24.5332 315.041 24.793 314.152 25.3125C313.277 25.8184 312.539 26.4814 311.938 27.3018C311.35 28.1084 310.898 28.9766 310.584 29.9062C310.27 30.8223 310.099 31.6973 310.071 32.5312ZM345.693 40.6934V13.5H348.154V45H345.857L345.693 40.6934ZM330.292 34.1309V33.7002C330.292 31.9775 330.49 30.4258 330.887 29.0449C331.283 27.6504 331.851 26.4609 332.589 25.4766C333.341 24.4785 334.243 23.7197 335.296 23.2002C336.349 22.667 337.538 22.4004 338.864 22.4004C340.163 22.4004 341.312 22.6123 342.31 23.0361C343.308 23.46 344.162 24.0684 344.873 24.8613C345.598 25.6543 346.179 26.5977 346.616 27.6914C347.067 28.7852 347.396 30.002 347.601 31.3418V36.8174C347.437 38.0752 347.136 39.2305 346.698 40.2832C346.261 41.3223 345.68 42.2314 344.955 43.0107C344.23 43.7764 343.355 44.3711 342.33 44.7949C341.318 45.2051 340.149 45.4102 338.823 45.4102C337.511 45.4102 336.328 45.1367 335.275 44.5898C334.223 44.043 333.327 43.2705 332.589 42.2725C331.851 41.2607 331.283 40.0645 330.887 38.6836C330.49 37.3027 330.292 35.7852 330.292 34.1309ZM332.753 33.7002V34.1309C332.753 35.4297 332.883 36.6328 333.143 37.7402C333.402 38.8477 333.799 39.8115 334.332 40.6318C334.865 41.4521 335.542 42.0947 336.362 42.5596C337.183 43.0244 338.153 43.2568 339.274 43.2568C340.683 43.2568 341.865 42.9902 342.822 42.457C343.779 41.9102 344.545 41.1924 345.119 40.3037C345.693 39.4014 346.11 38.417 346.37 37.3506V30.9727C346.206 30.248 345.967 29.5098 345.652 28.7578C345.338 28.0059 344.907 27.3154 344.36 26.6865C343.827 26.0439 343.144 25.5312 342.31 25.1484C341.489 24.752 340.491 24.5537 339.315 24.5537C338.181 24.5537 337.203 24.7861 336.383 25.251C335.562 25.7158 334.879 26.3652 334.332 27.1992C333.799 28.0195 333.402 28.9834 333.143 30.0908C332.883 31.1982 332.753 32.4014 332.753 33.7002ZM368.108 41.0215V29.5781C368.108 28.5254 367.89 27.6162 367.452 26.8506C367.015 26.085 366.372 25.4971 365.524 25.0869C364.677 24.6768 363.631 24.4717 362.387 24.4717C361.238 24.4717 360.213 24.6768 359.311 25.0869C358.422 25.4834 357.718 26.0234 357.198 26.707C356.692 27.377 356.439 28.1221 356.439 28.9424L353.979 28.9219C353.979 28.0879 354.184 27.2812 354.594 26.502C355.004 25.7227 355.585 25.0254 356.337 24.4102C357.089 23.7949 357.984 23.3096 359.023 22.9541C360.076 22.585 361.231 22.4004 362.489 22.4004C364.075 22.4004 365.47 22.667 366.673 23.2002C367.89 23.7334 368.84 24.5332 369.523 25.5996C370.207 26.666 370.549 28.0059 370.549 29.6191V40.3447C370.549 41.1104 370.604 41.9033 370.713 42.7236C370.836 43.5439 371.007 44.2207 371.226 44.7539V45H368.621C368.457 44.5078 368.327 43.8926 368.231 43.1543C368.149 42.4023 368.108 41.6914 368.108 41.0215ZM368.683 32.0801L368.724 33.9668H363.904C362.646 33.9668 361.519 34.083 360.521 34.3154C359.536 34.5342 358.702 34.8623 358.019 35.2998C357.335 35.7236 356.809 36.2363 356.439 36.8379C356.084 37.4395 355.906 38.123 355.906 38.8887C355.906 39.6816 356.104 40.4062 356.501 41.0625C356.911 41.7188 357.485 42.2451 358.224 42.6416C358.976 43.0244 359.864 43.2158 360.89 43.2158C362.257 43.2158 363.46 42.9629 364.499 42.457C365.552 41.9512 366.42 41.2881 367.104 40.4678C367.787 39.6475 368.245 38.752 368.478 37.7812L369.544 39.1963C369.366 39.8799 369.038 40.584 368.56 41.3086C368.095 42.0195 367.486 42.6895 366.734 43.3184C365.982 43.9336 365.094 44.4395 364.068 44.8359C363.057 45.2188 361.908 45.4102 360.623 45.4102C359.174 45.4102 357.909 45.1367 356.829 44.5898C355.763 44.043 354.929 43.2979 354.327 42.3545C353.739 41.3975 353.445 40.3174 353.445 39.1143C353.445 38.0205 353.678 37.043 354.143 36.1816C354.607 35.3066 355.277 34.5684 356.152 33.9668C357.041 33.3516 358.107 32.8867 359.352 32.5723C360.609 32.2441 362.018 32.0801 363.576 32.0801H368.683ZM379.572 26.4814V45H377.132V22.8105H379.511L379.572 26.4814ZM387.427 22.6465L387.365 24.9023C387.092 24.8613 386.825 24.8271 386.565 24.7998C386.306 24.7725 386.025 24.7588 385.725 24.7588C384.658 24.7588 383.722 24.957 382.915 25.3535C382.122 25.7363 381.452 26.2764 380.905 26.9736C380.358 27.6572 379.941 28.4639 379.654 29.3936C379.367 30.3096 379.203 31.2939 379.162 32.3467L378.26 32.6953C378.26 31.2461 378.41 29.8994 378.711 28.6553C379.012 27.4111 379.47 26.3242 380.085 25.3945C380.714 24.4512 381.5 23.7197 382.443 23.2002C383.4 22.667 384.521 22.4004 385.807 22.4004C386.121 22.4004 386.429 22.4277 386.729 22.4824C387.044 22.5234 387.276 22.5781 387.427 22.6465Z" fill="#58595B"/>
<defs>
<clipPath id="clip0_7607_117432">
<rect width="198.297" height="46.0049" fill="white" transform="translate(9.85156 9.49756)"/>
</clipPath>
</defs>
</svg>
